<svg width="15" height="15" viewBox="0 0 20 20" fill="none" xmlns="http://www.w3.org/2000/svg">
<path d="M0 20V2C0 1.45 0.196 0.979333 0.588 0.588C0.98 0.196667 1.45067 0.000666667 2 0H18C18.55 0 19.021 0.196 19.413 0.588C19.805 0.98 20.0007 1.45067 20 2V14C20 14.55 19.8043 15.021 19.413 15.413C19.0217 15.805 18.5507 16.0007 18 16H4L0 20ZM10 13C10.2833 13 10.521 12.904 10.713 12.712C10.905 12.52 11.0007 12.2827 11 12C11 11.7167 10.904 11.4793 10.712 11.288C10.52 11.0967 10.2827 11.0007 10 11C9.71667 11 9.47933 11.096 9.288 11.288C9.09667 11.48 9.00067 11.7173 9 12C9 12.2833 9.096 12.521 9.288 12.713C9.48 12.905 9.71733 13.0007 10 13ZM9 9H11V3H9V9Z" fill="#C39601"/>
</svg>
